<svg width="16" height="16" viewBox="0 0 16 16" fill="none" xmlns="http://www.w3.org/2000/svg">
<path d="M7.28027 13.4536C7.51535 13.4843 7.75563 13.5 8 13.5V14.5C7.71218 14.5 7.42881 14.4806 7.15088 14.4443L7.28027 13.4536ZM8.84863 14.4443C8.57085 14.4806 8.28766 14.5 8 14.5V13.5C8.24437 13.5 8.48465 13.4843 8.71973 13.4536L8.84863 14.4443ZM4.65234 12.3643C5.03109 12.6553 5.44847 12.8978 5.89502 13.083L5.70312 13.5444L5.51172 14.0063C4.98328 13.7872 4.49073 13.4995 4.04346 13.1558L4.65234 12.3643ZM11.9561 13.1558C11.5087 13.4995 11.0163 13.7872 10.4878 14.0063L10.4268 13.8589L10.2964 13.5449L10.105 13.083C10.5515 12.8978 10.9689 12.6553 11.3477 12.3643L11.9561 13.1558ZM2.91699 10.105C3.10217 10.5515 3.3447 10.9689 3.63574 11.3477L2.84375 11.9561C2.50005 11.5088 2.21227 11.0162 1.99316 10.4878L2.24609 10.3833L2.91699 10.105ZM14.0063 10.4878C13.7872 11.0163 13.4995 11.5087 13.1558 11.9561L12.3643 11.3477C12.6553 10.9689 12.8978 10.5515 13.083 10.105L14.0063 10.4878ZM1.5 8C1.5 7.71962 1.5178 7.44339 1.55225 7.17236L1.55518 7.15088L2.54639 7.28027C2.51572 7.51535 2.5 7.75563 2.5 8C2.5 8.24437 2.51572 8.48465 2.54639 8.71973L1.55518 8.84863C1.51896 8.57087 1.5 8.28764 1.5 8ZM14.4443 7.15088C14.4806 7.42881 14.5 7.71218 14.5 8C14.5 8.28766 14.4806 8.57085 14.4443 8.84863L13.4536 8.71973C13.4843 8.48465 13.5 8.24437 13.5 8C13.5 7.75563 13.4843 7.51535 13.4536 7.28027L14.4443 7.15088ZM3.63574 4.65234C3.3447 5.03109 3.10217 5.44847 2.91699 5.89502L1.99316 5.51172C2.2123 4.9833 2.50004 4.49072 2.84375 4.04346L3.63574 4.65234ZM13.1558 4.04346C13.4995 4.49073 13.7872 4.98328 14.0063 5.51172L13.5449 5.70361L13.5444 5.70312L13.083 5.89502C12.8978 5.44847 12.6553 5.03109 12.3643 4.65234L13.1558 4.04346ZM5.89502 2.91699C5.44847 3.10217 5.03109 3.3447 4.65234 3.63574L4.04346 2.84375C4.49072 2.50004 4.9833 2.2123 5.51172 1.99316L5.89502 2.91699ZM10.4878 1.99316C11.0162 2.21227 11.5088 2.50005 11.9561 2.84375L11.3477 3.63574C10.9689 3.3447 10.5515 3.10217 10.105 2.91699L10.4878 1.99316ZM8 1.5C8.28764 1.5 8.57087 1.51896 8.84863 1.55518L8.71973 2.54639C8.48465 2.51572 8.24437 2.5 8 2.5C7.75563 2.5 7.51535 2.51572 7.28027 2.54639L7.15088 1.55518C7.42879 1.51892 7.7122 1.5 8 1.5Z" fill="black"/>
</svg>

